<svg id="Layer_1" data-name="Layer 1" xmlns="http://www.w3.org/2000/svg" xmlns:xlink="http://www.w3.org/1999/xlink" viewBox="0 0 648 648"><defs><style>.cls-1{font-size:61.66px;font-family:Noteworthy-Light, Noteworthy;font-weight:300;}.cls-1,.cls-2{fill:#231f20;}.cls-3{fill:#ce202a;}.cls-3,.cls-4,.cls-5{stroke:#231f20;stroke-miterlimit:10;stroke-width:4px;}.cls-4{fill:#fff;}.cls-5{fill:#018c45;}</style></defs><text class="cls-1" transform="matrix(-0.06, 0.97, -1, -0.06, 62.03, -362.06)">I</text><text class="cls-1" transform="matrix(0.01, 0.97, -1, 0.01, 61.13, -348.5)">t</text><text class="cls-1" transform="matrix(0.09, 0.97, -1, 0.09, 61.06, -331.08)">a</text><text class="cls-1" transform="matrix(0.18, 0.96, -0.98, 0.18, 64.41, -301.47)">l</text><text class="cls-1" transform="matrix(0.22, 0.95, -0.98, 0.22, 66.18, -291.78)">i</text><text class="cls-1" transform="matrix(0.29, 0.93, -0.96, 0.29, 68.01, -282.28)">a</text><text class="cls-1" transform="matrix(0.41, 0.89, -0.91, 0.41, 77.43, -252.56)">n</text><text class="cls-1" transform="matrix(0.49, 0.84, -0.87, 0.5, 89.77, -226.42)"> </text><text class="cls-1" transform="matrix(0.57, 0.8, -0.82, 0.58, 98.22, -211.44)">S</text><text class="cls-1" transform="matrix(0.67, 0.71, -0.73, 0.68, 119.83, -182.45)">t</text><text class="cls-1" transform="matrix(0.73, 0.65, -0.67, 0.75, 132.47, -168.57)">y</text><text class="cls-1" transform="matrix(0.78, 0.59, -0.6, 0.8, 154.23, -149.8)">l</text><text class="cls-1" transform="matrix(0.82, 0.53, -0.54, 0.84, 162.15, -143.49)">e</text><text class="cls-1" transform="matrix(0.87, 0.45, -0.46, 0.88, 184.73, -129.32)"> </text><text class="cls-1" transform="matrix(0.92, 0.34, -0.35, 0.94, 200.49, -120.34)">H</text><text class="cls-1" transform="matrix(0.96, 0.2, -0.2, 0.98, 242.57, -105.54)">o</text><text class="cls-1" transform="matrix(0.97, 0.11, -0.12, 0.99, 267.76, -100.39)">t</text><text class="cls-1" transform="matrix(0.98, 0.04, -0.04, 1, 288.94, -98.02)"> </text><text class="cls-1" transform="matrix(0.98, -0.07, 0.07, 1, 306.66, -96.77)">D</text><text class="cls-1" transform="matrix(0.96, -0.2, 0.21, 0.98, 346.61, -100.11)">o</text><text class="cls-1" transform="matrix(0.93, -0.31, 0.32, 0.95, 375.47, -106.34)">g</text><text class="cls-1" transform="matrix(0.89, -0.41, 0.42, 0.91, 401.58, -115.11)">s</text><text class="cls-1" transform="matrix(0.85, -0.48, 0.5, 0.87, 426.91, -127.05)"> </text><text class="cls-1" transform="matrix(0.78, -0.59, 0.61, 0.8, 443.23, -135.32)">&amp;</text><text class="cls-1" transform="matrix(0.7, -0.68, 0.7, 0.71, 481.17, -165.36)"> </text><text class="cls-1" transform="matrix(0.62, -0.75, 0.77, 0.64, 493.93, -177.29)">S</text><text class="cls-1" transform="matrix(0.52, -0.82, 0.85, 0.53, 516.69, -205.19)">a</text><text class="cls-1" transform="matrix(0.43, -0.88, 0.9, 0.44, 532.63, -230.73)">u</text><text class="cls-1" transform="matrix(0.33, -0.92, 0.94, 0.34, 543.93, -254.05)">s</text><text class="cls-1" transform="matrix(0.23, -0.95, 0.97, 0.23, 553.36, -280.44)">a</text><text class="cls-1" transform="matrix(0.11, -0.97, 0.99, 0.12, 560.03, -309.12)">g</text><text class="cls-1" transform="matrix(0, -0.98, 1, 0, 563.22, -337.71)">e</text><path class="cls-2" d="M122.9,174.81c2,1.15,2.38,2.84,1.1,5.08a19.71,19.71,0,0,1-1.39,2.05,22,22,0,0,0-1.4,2.05c-.41.72-.33,1.25.24,1.58.81.46,2.07,1.12,3.79,2s3,1.55,3.87,2q43.47,24.69,34.35,40.67-3.66,6.39-13.59,7.76-9.3,1.28-16.05-2.55a17.19,17.19,0,0,1-4.44-3.84q-2.67-3.15-1.67-4.89a5.15,5.15,0,0,1,5-2.61,11.92,11.92,0,0,1,5.89,1.71l2.81,1.6,2.72,1.54a9,9,0,0,0,6.28.62q3.87-.75,5.21-3.11,4.89-8.58-18.69-22-4.16-2.35-18-9.34a44.23,44.23,0,0,0-.52,6.72q-.14,5.06-.61,5.89a3.84,3.84,0,0,1-3,1.94,6.11,6.11,0,0,1-3.83-.72q-2.85-1.62-1.52-8.55c.73-3.3,1.45-6.56,2.16-9.8q-2.81-2.72-1.13-5.65c.32-.56,1.42-1.35,3.29-2.36a22.67,22.67,0,0,0,.75-2.31,11.07,11.07,0,0,1,.88-2.34,7.87,7.87,0,0,1,3.36-3.1A4.17,4.17,0,0,1,122.9,174.81Z"/><path class="cls-2" d="M198.08,169.24q3.6,3.42,1.06,10.1a27.1,27.1,0,0,1-5.85,9.27q-10.31,10.78-22.9-1.2a44.26,44.26,0,0,1-9.17-13.4q-4.89-10.41-.81-14.68,3.69-3.84,11.46-4.94t11.59,2.54a12,12,0,0,1,3.61,11.32,20.53,20.53,0,0,1-5.79,11.07q-.93,1-4.23,2,7.09,6.23,10.58,2.59a16.06,16.06,0,0,0,4-7.77q1-4.69,1.85-5.53C195.4,168.6,196.93,168.14,198.08,169.24Zm-20.89-5.31a8.71,8.71,0,0,0-4.39-2.24,4.26,4.26,0,0,0-4.2,1.15,5.47,5.47,0,0,0-1.33,5.56,11.38,11.38,0,0,0,3.24,5.09,4,4,0,0,0,3.1,1.21,4.48,4.48,0,0,0,3.08-1.49Q181.57,168.11,177.19,163.93Z"/><path class="cls-2" d="M212.6,126.81c.26.38.63,1,1.1,1.89.05,2.41-.54,4-1.75,4.89a4.07,4.07,0,0,1-4,.12c-1.83-2.35-3.54-3-5.12-1.85q-1.43,1,2,10.15a45.35,45.35,0,0,0,5.78,10.14q4.08,5.74,5.46,6.59a9.29,9.29,0,0,1,2.09,1.68,3.19,3.19,0,0,1,.37,3.09,5.64,5.64,0,0,1-2.1,2.76q-4.23,3-7.11-1.05a5.7,5.7,0,0,1-.61-1.28,5.46,5.46,0,0,0-.55-1.19q-2.93-4.12-9.11-12t-9-11.9q-2.6-3.65,1.68-6.66,2.53-1.78,4.58-.93a8,8,0,0,1,3.2-6,8.57,8.57,0,0,1,4.39-1.52,12.05,12.05,0,0,1,4.75.83C210.7,125.26,212,126,212.6,126.81Z"/><path class="cls-2" d="M263.35,128a10.54,10.54,0,0,1-.05,9q-2.25,5.22-8.76,8.26a16.91,16.91,0,0,1-6.61,1.67c-8.29.6-12.83.05-13.62-1.62q-1.86-3.95,3.67-6.54a16.91,16.91,0,0,1,1.71-.69c1,1.71,3.11,2.49,6.25,2.34a15.32,15.32,0,0,0,7.14-1.92c1.64-.91,2.19-1.94,1.66-3.07a4.5,4.5,0,0,0-.52-.75,4.69,4.69,0,0,1-.53-.79c-.1-.21-1.43-.15-4,.17-2.89.4-4.5.61-4.85.62q-12.89-1.41-16.95-10a19,19,0,0,1-1.62-11q1-6.36,5.8-8.62c2.4-1.12,5.59-1.45,9.56-1s6.84,1.66,8.58,3.54a15.13,15.13,0,0,1,2.52,3.53,7.82,7.82,0,0,1,.83,2.9c.08,1.06.15,2.13.22,3.19a6.41,6.41,0,0,1-2.79,2.73,8.35,8.35,0,0,1-3.47.25q-2.59-.15-3-1a10.28,10.28,0,0,1-.05-2.83,5,5,0,0,0-.31-2.26q-2.55-5.39-6.67-3.46-2.46,1.16-2.25,5a16.38,16.38,0,0,0,1.56,5.84q1.69,3.58,8.06,4.12,5.53-.08,11.2-.1C260.18,125.54,262.59,126.35,263.35,128Z"/><path class="cls-2" d="M303.54,118.73q1.15,4.83-4.62,9a27.13,27.13,0,0,1-10,4.61Q274.4,135.83,270.37,119a44.35,44.35,0,0,1-.38-16.22q1.56-11.37,7.33-12.74,5.19-1.23,12.31,2.07t8.35,8.42a12,12,0,0,1-3.15,11.45,20.74,20.74,0,0,1-10.9,6.15,10.63,10.63,0,0,1-4.64-.64q2.56,9.07,7.48,7.91a16,16,0,0,0,7.59-4.34q3.43-3.36,4.57-3.63Q303,116.42,303.54,118.73Zm-14.65-15.79a8.65,8.65,0,0,0-2.46-4.26,4.29,4.29,0,0,0-4.16-1.31,5.51,5.51,0,0,0-4.14,3.94,11.37,11.37,0,0,0-.06,6A4.05,4.05,0,0,0,280,110a4.59,4.59,0,0,0,3.4.42Q290.29,108.83,288.89,102.94Z"/><path class="cls-2" d="M346.36,87.16q-.75,5-1.41,9.85a61.5,61.5,0,0,0-.73,9.83l.67,27q.18,7.33-3.84,11.3t-11.21,4.14A26,26,0,0,1,319.49,147q-6.76-2.72-6.86-6.78a2.92,2.92,0,0,1,1.06-2.35,3.68,3.68,0,0,1,2.45-1q.87,0,4.24,2.57a11.61,11.61,0,0,0,7.63,2.5q5.43-.13,7.17-4.24,1.29-2.8,1.14-8.95c0-1.52-.1-2.77-.19-3.76a12.46,12.46,0,0,1-7.12,2.35q-7.27.16-11.39-5.09-3.71-4.77-3.9-12.3,0-.8.36-25a12.46,12.46,0,0,1,4.62-1.4q1.94,0,5.78,2.25-2.18,6-1.74,23.84.28,11.4,5.91,11.26c2.78-.07,4.86-2.49,6.23-7.29a34.75,34.75,0,0,0,1.38-10.74L336,90.78c0,.06-.12-1-.37-3.27q3.93-2.07,5.87-2.12A9.26,9.26,0,0,1,346.36,87.16Z"/><path class="cls-2" d="M415.09,139.33a63.4,63.4,0,0,1-22.18-3.55q-8.62-3-10-10.36-1-5.7,2.26-15.16,1.91-5.52,6.5-16.11T398.19,78c.24-.69.57-1.8,1-3.33s.77-2.67,1-3.42a22.39,22.39,0,0,1,1-2.47,5.94,5.94,0,0,1,5.28-.7q2.56.88,2.78,4.74a15.23,15.23,0,0,1-.85,6q-2.21,6.38-7.73,18.51T393,115.8q-3.82,11.06,2.33,13.17a26.2,26.2,0,0,0,8.55.8,26.31,26.31,0,0,1,8.56.8,4.58,4.58,0,0,1,3.13,3.7A9.63,9.63,0,0,1,415.09,139.33Z"/><path class="cls-2" d="M462,148.14a26.43,26.43,0,0,1-12,10.42q-8.19,3.31-15.19-1.22-7.15-4.65-7.57-12-.47-6.57,4.46-14.13a34.5,34.5,0,0,1,12.87-11.75q9.38-5.15,16.13-.77,2.11,1.38,4,5.35Q470.26,135.51,462,148.14Zm-7-4.82q8.28-12.7,2.26-16.62-4.32-2.79-10,1.18a29.39,29.39,0,0,0-7.64,8.17q-7.2,11.05-.77,15.22,4.14,2.7,9.16-.56A24.67,24.67,0,0,0,455,143.32Z"/><path class="cls-2" d="M506.27,169.19A86.77,86.77,0,0,1,499,175a86.57,86.57,0,0,0-7.3,5.9q-2,1.91-5.85,5.85t-5.77,5.78c-1.1,1-2.52.65-4.26-1.18a4.67,4.67,0,0,1-.66-6.17,12.93,12.93,0,0,1-6.75-3.5,16.49,16.49,0,0,1-3.28-5.7,11,11,0,0,1-.77-6.21q1.1-4.89,7.8-11.23,2.31-2.19,8.22-7.49,5.32-4.63,8.14-7.42,3.62.63,5,2,3.24,3.41-.15,6.61a36,36,0,0,1-3.8,2.92,34.68,34.68,0,0,0-3.8,2.92l-10.17,9.6a11.3,11.3,0,0,0-2.74,4.32c-.73,2.11-.61,3.69.37,4.72,1.91,2,4.66,2.27,8.24.75a27.05,27.05,0,0,0,7.57-5.28l8.66-8.18a17.76,17.76,0,0,0,3.31-4.73,7.06,7.06,0,0,1,4.87,1.81,6.67,6.67,0,0,1,1.82,4.08A4.57,4.57,0,0,1,506.27,169.19Z"/><path class="cls-2" d="M535.85,167.87a5.38,5.38,0,0,1,4.49-.61,6.67,6.67,0,0,1,4.06,2.82,6,6,0,0,1,.56,5.45,10,10,0,0,1-4.22,5.28,24.83,24.83,0,0,1-6.13,3.17,15.25,15.25,0,0,1-5.8.63,22.51,22.51,0,0,1-6.11-1.16,7.54,7.54,0,0,1-4-2.59,3.11,3.11,0,0,1-.25-2.58c.31-.79,1-1.15,2.21-1.08a18.93,18.93,0,0,0,4.26,1.53,9.39,9.39,0,0,0,4.77-.22,7.36,7.36,0,0,0,2.7-1.4,3.63,3.63,0,0,0,1.27-3,21.31,21.31,0,0,1,.24-3.55A4,4,0,0,1,535.85,167.87Z"/><path class="cls-2" d="M519.33,241.83a10.65,10.65,0,0,1-9-.09q-5.22-2.3-8.24-8.78a17.13,17.13,0,0,1-1.65-6.61q-.84-12.4,1.68-13.58c2.64-1.22,4.83,0,6.54,3.7.25.53.47,1.1.69,1.71-1.73,1-2.51,3.08-2.37,6.22a15.26,15.26,0,0,0,1.89,7.13q1.37,2.46,3.08,1.67a3.8,3.8,0,0,0,.75-.51,3.76,3.76,0,0,1,.8-.52c.21-.1.15-1.43-.16-4-.39-2.88-.59-4.49-.61-4.84q1.47-12.84,10.13-16.84a19,19,0,0,1,11-1.56q6.38,1,8.63,5.83,1.66,3.6.93,9.54t-3.59,8.54a15.5,15.5,0,0,1-3.55,2.5,7.94,7.94,0,0,1-2.91.81l-3.19.19a6.41,6.41,0,0,1-2.73-2.79,8.4,8.4,0,0,1-.24-3.47c.11-1.72.44-2.71,1-3a10.59,10.59,0,0,1,2.84,0,5.07,5.07,0,0,0,2.27-.31c3.6-1.66,4.77-3.87,3.48-6.62-.76-1.64-2.42-2.4-5-2.28a16.48,16.48,0,0,0-5.86,1.53q-3.6,1.66-4.16,8,0,5.52,0,11.18C521.77,238.68,521,241.08,519.33,241.83Z"/><path class="cls-2" d="M127.81,331.6a10.64,10.64,0,0,1-1.27-.75,17.57,17.57,0,0,0-4.05-.84,269.15,269.15,0,0,0-29.1-3.45q-11-.65-14.55,1.48a4.49,4.49,0,0,1-.87-2.31c.13-2.16,2-3.35,5.63-3.59a63,63,0,0,1,6.81-.2l36.49,2.68a3.32,3.32,0,0,1,2.23,1.56,4.11,4.11,0,0,1,1.09,2.55,3.63,3.63,0,0,1-.92,1.79C128.72,331.26,128.22,331.62,127.81,331.6Z"/><path class="cls-2" d="M102.62,349.6a7,7,0,0,1-.81-2.85,11.44,11.44,0,0,0-.57-2.85c-.57,0-3.43,0-8.57,0q-6,.07-8.1.24a15.2,15.2,0,0,0-2.7.41A15,15,0,0,1,79,345a1.66,1.66,0,0,1-1.24-.73,2.29,2.29,0,0,1-.64-1.35c0-1,1-1.81,3.14-2.44a17.62,17.62,0,0,1,4.39-.65l16-.17c.26-.3.24-1.42,0-3.37-.23-1.56.35-2.35,1.74-2.36,2,0,2.88,2,2.78,6.06l14,.82a2.67,2.67,0,0,0,.73-.19,2.3,2.3,0,0,1,.73-.2,1.15,1.15,0,0,1,.89.59,2.09,2.09,0,0,1,.37,1.43c-.14,1.75-1,2.64-2.67,2.66a48.83,48.83,0,0,1-5.8-.47,48,48,0,0,0-5.72-.46,10.21,10.21,0,0,0-1.77.17l.28,4.13c0,1.4-.54,2.11-1.67,2.12A2.23,2.23,0,0,1,102.62,349.6Z"/><path class="cls-2" d="M78.23,375c-.72.07-1.13-.44-1.24-1.54a2,2,0,0,1,1.33-2.32,29.52,29.52,0,0,1,3-.36,2.76,2.76,0,0,0,1.21-.34,14.82,14.82,0,0,1-4-8.75A12.3,12.3,0,0,1,79.79,355q1.8-3.8,5-4.1c2.1-.2,4.29,1,6.56,3.68a12.82,12.82,0,0,1,3.46,6.92l.71,7.4a2.32,2.32,0,0,0,1.66.3,27.93,27.93,0,0,0,7.68-1.56q4.24-1.77,3.86-5.73c-.18-1.9-1.58-3.52-4.19-4.89a12,12,0,0,0-6.66-1.55l-.46,0-.39,0a.54.54,0,0,1-.67-.54,2.49,2.49,0,0,1,.77-1.74,2.59,2.59,0,0,1,1.52-1.05,15.88,15.88,0,0,1,5.54.76,16.65,16.65,0,0,1,5.22,2.3,6,6,0,0,1,2.52,4.44,12.62,12.62,0,0,1-2,8.12,9.18,9.18,0,0,1-6.85,4.57Zm11.83-5.12c2-.2,2.92-1.84,2.63-4.93a15,15,0,0,0-1.93-6.31c-1.35-2.24-3.16-3.25-5.41-3a3.6,3.6,0,0,0-3,2.18,6.81,6.81,0,0,0-.64,3.84,10.06,10.06,0,0,0,2.74,5.89A6.53,6.53,0,0,0,90.06,369.92Z"/><path class="cls-2" d="M83.48,386.48a1.82,1.82,0,0,1-2.35-1.71q-.6-3.25,13.16-5.68l34.13-6a18.18,18.18,0,0,0,2.35-.66,19.42,19.42,0,0,1,2.27-.64,4.38,4.38,0,0,1,1.5,2.17,3.52,3.52,0,0,1-.38,2.21,2.26,2.26,0,0,1-1.63,1.37,7.29,7.29,0,0,1-2,0c-1.07-.12-1.73-.17-2-.18a92.64,92.64,0,0,0-14.58,1.74q-15,2.72-14.44,2.55a87.53,87.53,0,0,0-13.83,3.74,3.56,3.56,0,0,0-1,.52A3.61,3.61,0,0,1,83.48,386.48Z"/><path class="cls-2" d="M114.21,389.43a21.33,21.33,0,0,1-4.21.3,19.77,19.77,0,0,0-4.2.3L89.17,393.8a19.6,19.6,0,0,0-4.35,1.75.91.91,0,0,1-.79-.67q-.82-3.58,2.72-4.39l27.61-6.26a3.82,3.82,0,0,1,1,1.71,3.87,3.87,0,0,1-.11,1.95C115,388.8,114.71,389.32,114.21,389.43Zm11.6-1.17q-2.55.58-3.09-1.76a3.85,3.85,0,0,1,.47-2.81,3.19,3.19,0,0,1,2.14-1.71,2.29,2.29,0,0,1,3.12,1.91,3.67,3.67,0,0,1-.4,2.75A3.28,3.28,0,0,1,125.81,388.26Z"/><path class="cls-2" d="M90.29,423.29c-.69.21-1.2-.21-1.52-1.27a2,2,0,0,1,.83-2.53,26.93,26.93,0,0,1,2.85-.95,2.79,2.79,0,0,0,1.12-.58,14.85,14.85,0,0,1-5.71-7.77,12.38,12.38,0,0,1-.08-6.81q1-4.08,4.1-5t7.17,2.29c2.53,1.95,4.13,4,4.78,6.08l2.19,7.12a2.32,2.32,0,0,0,1.68,0,27.58,27.58,0,0,0,7.21-3.06c2.54-1.72,3.41-3.85,2.63-6.39q-.84-2.73-5.09-3.95a12.08,12.08,0,0,0-6.84-.19l-.44.14-.37.11a.54.54,0,0,1-.77-.39,3.42,3.42,0,0,1,1.68-3.19,15.63,15.63,0,0,1,5.58-.37,16.59,16.59,0,0,1,5.58,1.2,6,6,0,0,1,3.36,3.85,12.55,12.55,0,0,1-.33,8.36,9.12,9.12,0,0,1-5.78,5.85Zm10.55-7.4c2-.6,2.49-2.39,1.58-5.35a15,15,0,0,0-3.16-5.8q-2.67-2.88-5.91-1.89a3.59,3.59,0,0,0-2.54,2.75,6.89,6.89,0,0,0,.14,3.88,10.2,10.2,0,0,0,3.87,5.23A6.52,6.52,0,0,0,100.84,415.89Z"/><path class="cls-2" d="M104.75,451.76a1.34,1.34,0,0,1-1.27-.75,6,6,0,0,1-.08-2.77L104,448l1.9-.87,1.82-.83Q131,435.7,128.41,430.05q-.81-1.77-4.42-2.6-9-2.18-19,2.39a30.71,30.71,0,0,0-3.73,2.15,31.79,31.79,0,0,1-3.72,2.14c-.71.32-1.27,0-1.69-.91q-1.21-2.64,3.21-4.65L115,421.32c.42-.19,1-.44,1.86-.76s1.43-.57,1.85-.76a24.41,24.41,0,0,0,2.56-1.45,23.13,23.13,0,0,1,2.49-1.42,2.14,2.14,0,0,1,1.69.26,2.75,2.75,0,0,1,1.35,1,2.3,2.3,0,0,1-.24,2.09q-4.65,1.88-5.42,2.22-1.06.48-2,1c.33.35,1.35.54,3.07.59a19.12,19.12,0,0,1,4.65.53,5.32,5.32,0,0,1,3.69,2.87,8.5,8.5,0,0,1,.49,2.75,10.11,10.11,0,0,1-2.22,7.37q-4.32,5.19-13.45,9.34Z"/><path class="cls-2" d="M139.27,491.84q-3.53,2.51-8.46-.46a22.16,22.16,0,0,1-6.75-6.28,29.65,29.65,0,0,1-4.13-9q-2-6.9.92-8.94a1.65,1.65,0,0,1,2.62.35,5.38,5.38,0,0,1,.54,3.68c-.37,2.41-.55,3.71-.55,3.89q.09,3.43,3.8,8.65,5,7,8.75,4.31,1.77-1.24,2.2-6.07,0-.76.13-7,.1-9.94.77-13a17.18,17.18,0,0,1,7.07-10.81,20.2,20.2,0,0,1,11.48-3.8c4.7-.13,8.21,1.41,10.5,4.64a10.86,10.86,0,0,1,1.44,9.59,19.94,19.94,0,0,1-5.21,8.76q-1.47,1.13-4.24,3.74l-1.92,2.1q-5,3.56-6.74,1.17a2.2,2.2,0,0,1-.17-1.77,2.6,2.6,0,0,1,.9-1.6,17,17,0,0,1,2.82-1.49,17.82,17.82,0,0,0,2.82-1.49,25.2,25.2,0,0,0,6.72-6.77q3.27-5,.72-8.56a8.9,8.9,0,0,0-7.51-3.69,14.3,14.3,0,0,0-8.79,2.61q-5.16,3.64-6.07,12.2-.15,7.37-.31,14.84Q142.41,489.61,139.27,491.84Z"/><path class="cls-2" d="M166.62,494.67a7.31,7.31,0,0,1-2.52-1.57,11.58,11.58,0,0,0-2.35-1.72q-.67.53-6.31,5.77-4.4,4.1-5.82,5.63a15.25,15.25,0,0,0-1.72,2.11,15.79,15.79,0,0,1-1.83,2.22,1.69,1.69,0,0,1-1.41.29,2.27,2.27,0,0,1-1.38-.57c-.69-.74-.46-2,.67-3.92a17.68,17.68,0,0,1,2.8-3.43l11.73-10.92c0-.39-.78-1.21-2.3-2.46-1.22-1-1.32-2-.31-2.92q2.15-2,6.14,2.61L172.89,477a2.61,2.61,0,0,0,.41-.64,2.66,2.66,0,0,1,.4-.64,1.16,1.16,0,0,1,1.06-.16,2.09,2.09,0,0,1,1.24.81q1.62,2.08-.18,3.76a47.14,47.14,0,0,1-4.59,3.55,47.32,47.32,0,0,0-4.53,3.5,10.53,10.53,0,0,0-1.2,1.32l3,2.86c1,1,1,1.93.2,2.7A2.24,2.24,0,0,1,166.62,494.67Z"/><path class="cls-2" d="M189,507c-1.82,1.41-3.61,2.83-5.39,4.27a36.2,36.2,0,0,0-5,4.59l-16.05,18a10.52,10.52,0,0,1-15.88.94,15.49,15.49,0,0,1-3.65-5.3,11.09,11.09,0,0,1-1.29-6.81,2.83,2.83,0,0,1,.65-1.28,1.92,1.92,0,0,1,3.06-.27,2,2,0,0,1,.53.88c0,1.26.06,2.49.12,3.71a9,9,0,0,0,3.25,6.08q3.71,3.3,7.31,1.76c1.48-.68,3.52-2.47,6.12-5.39a30.45,30.45,0,0,0,1.83-2.49,13,13,0,0,1,2.14-2.63,20.82,20.82,0,0,1-3.94-.11,6.45,6.45,0,0,1-3.43-1.59,8.65,8.65,0,0,1-3.08-8.2,16.05,16.05,0,0,1,4.26-8.27q6.93-7.75,11.92-12.9a2.44,2.44,0,0,1,3.62-.09c1.42,1.26,1.84,2.08,1.24,2.44q-3.73,2-13,12.44-7.19,8.06-2.7,12,2.75,2.43,8.21-.43a24.83,24.83,0,0,0,7.18-5.68l5.85-6.56,2.34-2.34q1.42-1.42,3.07.24C189.49,505.32,189.76,506.31,189,507Z"/><path class="cls-2" d="M177.62,534.84a1.82,1.82,0,0,1-2.89.33q-2.65-2,5.82-13.07l21-27.44a17.32,17.32,0,0,0,1.29-2.07,19.91,19.91,0,0,1,1.23-2,4.37,4.37,0,0,1,2.58.6,3.54,3.54,0,0,1,1.22,1.88,2.26,2.26,0,0,1-.27,2.11,7.55,7.55,0,0,1-1.51,1.37c-.86.64-1.39,1-1.59,1.22A91.16,91.16,0,0,0,195,508.88q-9.15,12.11-8.89,11.62a87.44,87.44,0,0,0-7.64,12.09,3.84,3.84,0,0,0-.35,1A3.51,3.51,0,0,1,177.62,534.84Z"/><path class="cls-2" d="M203.42,543.81c-1.23,1.9-3.57,2.8-7,2.71a14.5,14.5,0,0,1-7.68-2q-8.49-5.44-1.4-16.45a42.52,42.52,0,0,1,8.43-9.32q7-5.79,10.51-3.51c2,1.3,3.57,3.78,4.63,7.41s.92,6.5-.41,8.57a11.1,11.1,0,0,1-7.68,4.95,12.11,12.11,0,0,1-9.08-1.62,5.52,5.52,0,0,1-1.2-1.68,5.87,5.87,0,0,0-1.26-1.73c-.55-.35-.94-.35-1.16,0q-4.8,7.44,0,10.54a8.45,8.45,0,0,0,5.65,1.24,17.94,17.94,0,0,0,4.75-1.25c1.49-.56,2.37-.76,2.63-.6C204.1,541.69,204.19,542.6,203.42,543.81Zm3.3-14.72a9.14,9.14,0,0,0,1.46-5.05,4.54,4.54,0,0,0-2.08-4.13q-2.53-1.63-6.21.59a15,15,0,0,0-5,4.78,5.25,5.25,0,0,0-.85,3.89,4.65,4.65,0,0,0,2.19,3.19,6.21,6.21,0,0,0,5.78.51A9.18,9.18,0,0,0,206.72,529.09Z"/><path class="cls-2" d="M272.23,528.85c-1,.29-1.48.46-1.55.49a3.77,3.77,0,0,0-1.26,1q-3.07,3.54-10.26,22c1.55,1,2.18,1.91,1.9,2.68a3.31,3.31,0,0,1-1.26,1.42c-.54,0-1.33.05-2.37.11a93.17,93.17,0,0,0-2.76,9.57c0,.26-.07,1.06-.09,2.42a8.22,8.22,0,0,1-.26,2.21,3.16,3.16,0,0,1-1.28,1.49,2,2,0,0,1-1.81.32q-1.9-.7-1.54-3.86c0-.25.42-1.85,1.14-4.79s1.23-4.81,1.53-5.63a14.86,14.86,0,0,1,1.13-2.37,65.34,65.34,0,0,0-10.8-2.62q-5.49-.88-11-1.7l-1.75.82q-.94,2.76-2,5.56-1.28,4.35-.62,6c-.42.56-.83.76-1.23.61a4,4,0,0,0-1.53-.2,3.91,3.91,0,0,1-1.36-.14q-1.35-.5.29-6,1.11-3.42,2.29-6.79l-.23-.9-.28-.1a3.14,3.14,0,0,1-1.5-1.17,1.76,1.76,0,0,1-.25-1.7,3.71,3.71,0,0,1,1.24-1.38c.68-.54,1.24-.74,1.66-.58l.39.15.39.14.38.06q1.25-3.13,4.77-12.62,4.68-12.57,8.06-16.46a2.83,2.83,0,0,1,3.26-1,4,4,0,0,1,1.91,1.57,2.45,2.45,0,0,1,.35,2.31,7.45,7.45,0,0,1-1.38,1.7c-.93,1-1.45,1.63-1.57,1.8q-4.53,6.21-9.73,20.2-1.22,3.25,0,3.7c.23.08,1.57.31,4,.67A74.33,74.33,0,0,1,248,550.17a10.62,10.62,0,0,0,2.31.4,12.89,12.89,0,0,1,3.13.71c1,.36,1.68-.14,2.13-1.51l2.22-6.4a95.8,95.8,0,0,1,5.13-12q4.67-9.29,7.41-8.26a3.37,3.37,0,0,1,2,2.46A6,6,0,0,1,272.23,528.85Z"/><path class="cls-2" d="M287.87,565.62a22.61,22.61,0,0,1-5.15,10.72q-4.53,5.11-10.43,3.89a10,10,0,0,1-8-6.6q-1.62-4.43-.27-10.91a30.92,30.92,0,0,1,5.42-12q5.13-6.87,10.59-5.74a8.66,8.66,0,0,1,3.64,2.48Q290.31,553.87,287.87,565.62Zm-3.53-.81a28.54,28.54,0,0,0,.55-8.93q-.74-5.73-4.57-6.53-4.43-.92-8.17,4.52a25.8,25.8,0,0,0-4,9.47,21.71,21.71,0,0,0-.34,8.27c.67,3.23,2.35,5.12,5.06,5.68q4.43.91,7.78-3.73A22.81,22.81,0,0,0,284.34,564.81Z"/><path class="cls-2" d="M305.07,558.36a7.13,7.13,0,0,1-2.93.43,12.08,12.08,0,0,0-2.91.2q-.17.82-1.07,8.48c-.46,4-.73,6.65-.79,8a15.39,15.39,0,0,0,.06,2.72,14.78,14.78,0,0,1,0,2.87,1.64,1.64,0,0,1-.89,1.14,2.21,2.21,0,0,1-1.42.45c-1-.12-1.67-1.25-2-3.41a17.47,17.47,0,0,1-.09-4.43l1.86-15.9c-.26-.29-1.38-.42-3.35-.4-1.58,0-2.29-.65-2.13-2,.23-1.94,2.35-2.59,6.38-2l2.59-13.73a2.43,2.43,0,0,0-.1-.74,2.22,2.22,0,0,1-.1-.75c0-.31.27-.58.7-.81a2.12,2.12,0,0,1,1.46-.18c1.73.36,2.5,1.35,2.31,3a46.5,46.5,0,0,1-1.2,5.68,47.85,47.85,0,0,0-1.19,5.59,9.75,9.75,0,0,0,0,1.78l4.14.25c1.4.17,2,.81,1.9,1.93A2.24,2.24,0,0,1,305.07,558.36Z"/><path class="cls-2" d="M356.58,549.33a49,49,0,0,1-3.47,22.24q-5.34,12.88-15.64,13.61a11,11,0,0,1-7.26-2.19c-.77,1.19-1.28,1.79-1.53,1.81a3,3,0,0,1-1.69-.42q-1.28-2.93-1.88-11.44-.47-6.47-1.15-19.18t-1.16-19.25c0-.1,0-.29,0-.57s0-.5-.05-.66c-.08-1.12.48-1.73,1.68-1.81a3.45,3.45,0,0,1,2,.59,2,2,0,0,1,1.17,1.5,6.51,6.51,0,0,1-.37,2.3,6.51,6.51,0,0,0-.37,2.22c.13,1.85.21,2.85.22,3,.57-.4,1.36-1.72,2.35-4a16.66,16.66,0,0,1,3.18-5,10.38,10.38,0,0,1,6.95-3,13.25,13.25,0,0,1,12.63,6Q355.94,540.51,356.58,549.33Zm-4.47-.07a29.93,29.93,0,0,0-2.78-11.45q-3.1-6.27-9-5.85-4.2.3-8,5.89a27,27,0,0,0-4.07,9.63,36.46,36.46,0,0,0-.52,9.6l1.15,15.9a10.35,10.35,0,0,0,2.32,6.08,6.57,6.57,0,0,0,5.77,2.53q6-.44,10.29-7.21a30.32,30.32,0,0,0,4.54-12.51A64.49,64.49,0,0,0,352.11,549.26Z"/><path class="cls-2" d="M385.62,560.5a22.35,22.35,0,0,1-.39,11.88q-2.07,6.51-8,7.75a10,10,0,0,1-9.93-2.86q-3.27-3.4-4.65-9.88a30.77,30.77,0,0,1,.12-13.16q1.9-8.36,7.37-9.51a8.6,8.6,0,0,1,4.33.81Q383.13,548.75,385.62,560.5Zm-3.55.67a28.82,28.82,0,0,0-3.1-8.4q-3-4.95-6.82-4.14-4.41.93-5.65,7.41a25.8,25.8,0,0,0,.18,10.27,21.8,21.8,0,0,0,3,7.7q2.87,4.05,6.92,3.18,4.42-.93,5.62-6.53A22.79,22.79,0,0,0,382.07,561.17Z"/><path class="cls-2" d="M408.92,544.56c.1.29.21.71.34,1.26a64.63,64.63,0,0,0,2.46,12.25q.76,2.26,2.56,6.87t2.57,6.93a22.76,22.76,0,0,1,1.5,6.81,8.41,8.41,0,0,1-1.93,5.11,9.45,9.45,0,0,1-4.46,3.28,23.44,23.44,0,0,1-7.37,1c-3.7,0-5.8-.69-6.3-2.19-.45-1.32-.17-2.14.83-2.47a1.47,1.47,0,0,1,1.44.49A6.22,6.22,0,0,0,402,585a6.94,6.94,0,0,0,3.29.12,14.27,14.27,0,0,0,3.41-.49,7.12,7.12,0,0,0,5-5.24,13.31,13.31,0,0,0-.6-7.68,30.19,30.19,0,0,0-3.29-7.18q-1.89,5.75-6.67,7.34a8,8,0,0,1-3.69.14,9,9,0,0,1-3.58-1.2c-1.81-1.12-3.28-3.37-4.41-6.72a47.62,47.62,0,0,1-2.29-14.1q-.27-10.22,4.38-11.78,3.71-1.23,10.17,4.24a21.24,21.24,0,0,0,2.07,1.66A15,15,0,0,1,408.92,544.56ZM406,550a3.58,3.58,0,0,0-1.94-2.19,12.47,12.47,0,0,0-3.27-4.75,5.27,5.27,0,0,0-5.34-1.22c-1.28.43-2.07,2.34-2.35,5.74a30,30,0,0,0,.18,6.92,49.92,49.92,0,0,0,1.8,7.68q3,9,8.1,7.28,3.85-1.29,4.21-8.72A30.36,30.36,0,0,0,406,550Z"/><path class="cls-2" d="M439.39,551.17q1.14,2.46-1.71,5.8a15.71,15.71,0,0,1-5.21,4,13.11,13.11,0,0,1-4.66,1,23.42,23.42,0,0,1-5.54-1c-2.9-.78-4.51-1.49-4.81-2.15-.67-1.46-.13-2.5,1.62-3.14l.41-.19c.75,1.38,2.91,2.24,6.5,2.59,3.25.34,5.66.15,7.21-.57q3-1.38,2-3.48c-.39-.84-2.16-1.45-5.32-1.81a43.49,43.49,0,0,1-9.14-1.67,12.89,12.89,0,0,1-7.72-6.82,15.5,15.5,0,0,1-1.36-7.79c.21-3.27,1.38-5.39,3.53-6.37,1.55-.72,3.76-.84,6.63-.38s4.83,1.36,5.88,2.69a17.49,17.49,0,0,1,2.59,4.15,23,23,0,0,1,1.78,6.39,2.51,2.51,0,0,1-1.21,1.15,5.74,5.74,0,0,1-1.68.3c-.8.06-1.27-.05-1.4-.33.09.18.1-.44,0-1.89a12.7,12.7,0,0,0-1.45-4.58q-3.46-7.48-8-5.38-2.4,1.1-2.32,5.05a13.92,13.92,0,0,0,1.27,6c1.05,2.29,3.38,3.92,7,4.87a89.9,89.9,0,0,0,9.42,1.54Q438.75,549.77,439.39,551.17Z"/><path class="cls-2" d="M495.75,518.22c.43.57.32,1.5-.35,2.77a7,7,0,0,1-1.87,2.39,12,12,0,0,1-6.57,2.18,27.42,27.42,0,0,0-4.73.49q-4.75,8.54-10.1,12.58a14.57,14.57,0,0,1-8,3.33,8.76,8.76,0,0,1-7.63-3.8q-3-3.92-2.21-14.57c.07-.57.12-1.38.14-2.42q-5.27-2.68-6.88-3.69a22.78,22.78,0,0,1-5.75-5.31,15.16,15.16,0,0,1-3.46-10.44,12.15,12.15,0,0,1,5.23-9.09,9.91,9.91,0,0,1,7.45-2.07,9.76,9.76,0,0,1,6.7,4,13.68,13.68,0,0,1,2.06,3.57q1.2,3.54-.69,20.45,1.2,1.32,10.26,2.72c6,.93,9.49,1.08,10.32.44s1.44-2.19,2.26-5,1-4.59.54-5.2c-.59-.77-2.11-.73-4.53.14a16.61,16.61,0,0,0-4.57,2.21,7.68,7.68,0,0,0-2.39,3.07,1.64,1.64,0,0,1-1.73-.53q-1.35-1.78,1.17-3.69,12.41-9.41,14.9-6.15,3.13,4.13-1.32,15.28a8.7,8.7,0,0,0,4.24.28,8.28,8.28,0,0,0,4-1.38,4.1,4.1,0,0,0,.94-1.39,4,4,0,0,1,1-1.43,4.4,4.4,0,0,1,1-.39Zm-42-22.65a5.73,5.73,0,0,0-3.79-2.35,5.47,5.47,0,0,0-4.24,1.18,9.19,9.19,0,0,0-3.56,7.24,12,12,0,0,0,2.38,8.16,23,23,0,0,0,4.73,4.34,15.75,15.75,0,0,0,5.62,3,38.2,38.2,0,0,0,1.5-11Q456.36,498.94,453.79,495.57Zm23.63,30.25a92.37,92.37,0,0,1-18.91-3.08q-.78,9.4,2.72,14,1.78,2.32,4.06,1.85a10,10,0,0,0,4.13-2.16,33.54,33.54,0,0,0,4.82-5.1Q477.81,527.09,477.42,525.82Z"/><path class="cls-2" d="M526.5,474.51q3.32,2.76,1.74,8.27a22.18,22.18,0,0,1-4.35,8.12,29.45,29.45,0,0,1-7.64,6.28q-6.17,3.68-8.9,1.41A1.65,1.65,0,0,1,507,496a5.36,5.36,0,0,1,3.42-1.46c2.43-.26,3.74-.42,3.91-.47q3.31-1,7.4-5.88,5.49-6.59,1.93-9.54-1.66-1.38-6.46-.57l-6.82,1.68q-9.66,2.44-12.79,2.59a17.31,17.31,0,0,1-12.3-4,20.21,20.21,0,0,1-6.64-10.09q-2-6.75,1.79-11.31a10.86,10.86,0,0,1,8.92-3.85,20.12,20.12,0,0,1,9.83,2.78q1.47,1.13,4.72,3.13l2.52,1.31q4.76,3.93,2.88,6.19a2.21,2.21,0,0,1-1.67.62,2.61,2.61,0,0,1-1.78-.45,17.14,17.14,0,0,1-2.17-2.34,17.51,17.51,0,0,0-2.18-2.33,25,25,0,0,0-8.29-4.75q-5.67-1.87-8.48,1.51a8.82,8.82,0,0,0-1.64,8.18,14.18,14.18,0,0,0,4.8,7.8q4.86,4,13.39,2.72,7.17-1.75,14.46-3.5Q523.53,472,526.5,474.51Z"/><path class="cls-2" d="M549.1,455.45c.61.39.62,1,0,2a2,2,0,0,1-2.48,1,26.56,26.56,0,0,1-2.58-1.54,2.81,2.81,0,0,0-1.17-.47,14.77,14.77,0,0,1-2.2,9.37,12.45,12.45,0,0,1-5.13,4.49c-2.51,1.26-4.68,1.32-6.5.16s-2.76-3.43-2.92-6.91c-.17-3.19.33-5.72,1.52-7.58l4-6.29a2.32,2.32,0,0,0-1.13-1.24,27.76,27.76,0,0,0-7-3.47c-3-.8-5.16-.08-6.58,2.16q-1.53,2.42.31,6.42a12,12,0,0,0,4.31,5.31l.39.24.33.21a.55.55,0,0,1,.2.84,3.44,3.44,0,0,1-3.53.79,15.69,15.69,0,0,1-3.91-4,16.77,16.77,0,0,1-2.72-5,6,6,0,0,1,.74-5.05,12.7,12.7,0,0,1,6.58-5.18,9.23,9.23,0,0,1,8.23.58Zm-12.51-3.19c-1.73-1.1-3.44-.34-5.1,2.29a14.88,14.88,0,0,0-2.36,6.16c-.31,2.59.5,4.49,2.41,5.7a3.65,3.65,0,0,0,3.75.15,6.91,6.91,0,0,0,2.86-2.64,10.12,10.12,0,0,0,1.46-6.33A6.5,6.5,0,0,0,536.59,452.26Z"/><path class="cls-2" d="M533.81,416.46q2.16,1,6.22,3.54a78,78,0,0,0,7.19,4q1.24.6,4.87,2.06t5.15,2.2c2,1,3.16,1.8,3.36,2.45a2.31,2.31,0,0,1-.28,1.29,2.24,2.24,0,0,1-2.3,1.39l-2.84-.7q2.16,3.46.65,8.57c-.39,1.27-1.58,2.36-3.57,3.29a9.65,9.65,0,0,1-4.7,1.15c-1.84-.1-4.95-1.22-9.32-3.33l-15.15-7.31c-1.53-.4-1.86-1.51-1-3.31.61-1.26,1.66-1.54,3.14-.82q3.33,1.6,8.59,4.39,6.7,3.5,8.59,4.4a12.26,12.26,0,0,0,5.53,1.33c2.42.06,4-.61,4.66-2q1.67-3.45-2.14-7.63a24,24,0,0,0-7.13-5.11l-9.1-4.39a5.49,5.49,0,0,0-1.75-.39,5.45,5.45,0,0,1-1.81-.41,4.88,4.88,0,0,1-.73-.44,3.43,3.43,0,0,1-.05-2.36C530.7,416.21,532,415.58,533.81,416.46Z"/><path class="cls-2" d="M565.12,401.73q2.55.91,3,5.28a15.7,15.7,0,0,1-.78,6.51,13.27,13.27,0,0,1-2.53,4.05,23.78,23.78,0,0,1-4.62,3.21q-3.89,2.28-4.9,1.92-2.28-.81-1.11-3.35l.15-.43q2.25.65,6.4-2.82c2.51-2.08,4.06-3.92,4.63-5.52.75-2.08.4-3.37-1.06-3.9q-1.32-.46-5,2.52a43.38,43.38,0,0,1-7.59,5.34,12.89,12.89,0,0,1-10.28.71,15.46,15.46,0,0,1-6.53-4.49c-2.19-2.44-2.89-4.76-2.09-7q.85-2.4,4.37-5c2.34-1.72,4.35-2.48,6-2.31a17.4,17.4,0,0,1,4.78,1.08,22.89,22.89,0,0,1,5.82,3.2,2.4,2.4,0,0,1,0,1.67,4.94,4.94,0,0,1-1,1.41c-.51.61-.92.87-1.21.76q.29.11-1.32-1.35a13,13,0,0,0-4.3-2.18c-5.18-1.86-8.35-1.2-9.48,1.95-.59,1.66.07,3.38,2,5.19a14.15,14.15,0,0,0,5.15,3.28q3.57,1.29,8.37-1.55a91,91,0,0,0,7.69-5.63Q563.67,401.2,565.12,401.73Z"/><path class="cls-2" d="M578.35,376.28c.7.16.92.78.66,1.85a2,2,0,0,1-2,1.77c-.16,0-1.14-.2-3-.62a2.9,2.9,0,0,0-1.25-.07,14.88,14.88,0,0,1,1,9.58,12.35,12.35,0,0,1-3.39,5.91q-2.94,3-6.09,2.27t-5-5.59c-1.2-3-1.55-5.52-1-7.67l1.72-7.23a2.28,2.28,0,0,0-1.47-.82,27.94,27.94,0,0,0-7.78-1q-4.59.3-5.51,4.18c-.44,1.85.35,3.84,2.39,6a12.06,12.06,0,0,0,5.8,3.62l.45.1.38.09a.54.54,0,0,1,.46.73,2.47,2.47,0,0,1-1.28,1.39,2.58,2.58,0,0,1-1.79.51,16,16,0,0,1-5-2.5,16.75,16.75,0,0,1-4.2-3.85,6,6,0,0,1-.95-5,12.68,12.68,0,0,1,4.53-7,9.17,9.17,0,0,1,8-2.12Zm-12.87,1q-3-.7-4.08,3.82a14.83,14.83,0,0,0-.21,6.59q.82,3.82,4.14,4.61a3.61,3.61,0,0,0,3.58-1.08,6.85,6.85,0,0,0,1.85-3.42,10,10,0,0,0-.69-6.46A6.49,6.49,0,0,0,565.48,377.32Z"/><path class="cls-2" d="M556.91,344c.3,0,.74.12,1.29.23a65.22,65.22,0,0,0,12.16,3c1.59.19,4,.39,7.31.63s5.75.44,7.39.63a22.8,22.8,0,0,1,6.81,1.56,8.45,8.45,0,0,1,3.82,3.92,9.51,9.51,0,0,1,1.08,5.42,23.48,23.48,0,0,1-2.23,7.08q-2.29,5-4.67,4.75c-1.38-.16-2-.76-1.89-1.81,0-.44.41-.81,1.06-1.08a7.12,7.12,0,0,0,1.57-.8,7,7,0,0,0,1.51-2.93,13.81,13.81,0,0,0,1-3.29,7.09,7.09,0,0,0-2.63-6.73,13.4,13.4,0,0,0-7.22-2.74,30.19,30.19,0,0,0-7.92-.09q4.41,4.14,3.83,9.15a7.84,7.84,0,0,1-1.44,3.38,9.17,9.17,0,0,1-2.61,2.73q-2.68,1.72-8,1.11a48.24,48.24,0,0,1-13.76-4q-9.39-4.11-8.82-9,.45-3.89,8.16-7.37a22.15,22.15,0,0,0,2.39-1.16A15,15,0,0,1,556.91,344Zm3.69,5a3.57,3.57,0,0,0-2.81.8,12.68,12.68,0,0,0-5.7.92,5.26,5.26,0,0,0-3.38,4.3c-.16,1.34,1.25,2.87,4.21,4.58a29.69,29.69,0,0,0,6.35,2.78,49.86,49.86,0,0,0,7.74,1.66q9.42,1.11,10-4.19.48-4-6.11-7.53A30.32,30.32,0,0,0,560.6,349Z"/><path class="cls-2" d="M572.63,319.13c2.27,0,4.29,1.49,6.08,4.46a14.35,14.35,0,0,1,2.45,7.52q0,10.08-13.16,10A42.5,42.5,0,0,1,555.58,339q-8.62-2.75-8.62-7c0-2.4,1.27-5,3.77-7.87s5-4.27,7.47-4.25a11.09,11.09,0,0,1,8.32,3.79,12.06,12.06,0,0,1,3.52,8.51,5.72,5.72,0,0,1-.78,1.91,5.81,5.81,0,0,0-.78,2c0,.65.21,1,.62,1q8.86,0,8.89-5.68a8.42,8.42,0,0,0-2-5.42,18.38,18.38,0,0,0-3.62-3.32c-1.28-1-1.93-1.58-1.92-1.88C570.47,319.69,571.19,319.12,572.63,319.13Zm-14.22,5.12a9.26,9.26,0,0,0-5.06,1.48,4.54,4.54,0,0,0-2.36,4c0,2,1.27,3.64,3.84,4.91a15.15,15.15,0,0,0,6.71,1.6,5.27,5.27,0,0,0,3.74-1.37,4.6,4.6,0,0,0,1.52-3.56,6.15,6.15,0,0,0-2.68-5.13A9.23,9.23,0,0,0,558.41,324.25Z"/><path class="cls-3" d="M264.2,380a11.43,11.43,0,0,0-6.66,3.36c-5.8,6-17.84,19.32-15.82,23.63,1.59,3.41,1.26,9.09.74,13.05a11.49,11.49,0,0,0,2.34,8.54c7.69,9.87,28.31,34.12,45.1,34.12,15.88,0,16.17,9.19,15.35,13.72a11.17,11.17,0,0,1-1.41,3.7c-2.59,4.4-10.47,18.92.75,15.71,10.91-3.11,26.47-32.31,31.49-42.25a11.46,11.46,0,0,1,4.92-5c2.65-1.39,6.74-3.58,11.77-6.42a13,13,0,0,0,6.78-14.1l-.2-.73a11.49,11.49,0,0,1,2.49-10.73l14.44-16.22a11.52,11.52,0,0,0,2.85-6.47l1.06-10.27a10.34,10.34,0,0,1,.2-1.26l4-18.45a11.9,11.9,0,0,1,1.28-3.31l3.44-5.95a11.54,11.54,0,0,0,1.49-4.6c.34-3.47,1.3-10.17,4-15.75a15.79,15.79,0,0,0,1-2.91L283,368C279.28,376.63,269.55,379.2,264.2,380Z"/><path class="cls-4" d="M391.2,303.17c-3.72-2.46-9-5.4-13.2-5.4a7,7,0,0,1-6.35-3.95,10.18,10.18,0,0,1-.71-1.63L304,313.93l8.9,10.86a11.5,11.5,0,0,1-3.59,17.49c-7.33,3.81-16.07,9.05-21.41,14.65l108.58-35.28a75.91,75.91,0,0,0-.22-9.85A11.47,11.47,0,0,0,391.2,303.17Z"/><path class="cls-5" d="M395.81,219.06a10.64,10.64,0,0,1-1.24-.67l-60.47-37a11.5,11.5,0,0,0-14.84,2.43c-7.57,9.09-20.25,24.6-28.95,36.91-2.13,3-2,6.7-1.47,10.35,1.79,12.65-10.23,23.07-10.23,23.07s-1.28.64-1.27,8.64a22,22,0,0,0,6.48,15.34,26.17,26.17,0,0,1,7.41,14.65,11.42,11.42,0,0,0,2.49,5.61l6.16,7.51,70.82-23c1.11-4.81,3.69-14.07,7.3-15.18s8.84-6.11,11.51-8.81a11.26,11.26,0,0,0,2.47-3.77c1.68-4.17,5.71-13.91,9.73-21.65C406.32,224.58,398,220.06,395.81,219.06Z"/></svg>